<?xml version="1.0" encoding="utf-8"?>
<!-- Generator: Adobe Illustrator 18.1.1, SVG Export Plug-In . SVG Version: 6.00 Build 0)  -->
<svg version="1.1" xmlns="http://www.w3.org/2000/svg" xmlns:xlink="http://www.w3.org/1999/xlink" x="0px" y="0px"
	 viewBox="0 0 914.2 557.6" enable-background="new 0 0 914.2 557.6" xml:space="preserve">
<g id="Layer_2">
	<rect x="-2.4" y="0.1" fill="#8658B7" width="916.6" height="557.6"/>
	<path fill="#C1A8E2" d="M485.1,469.9C429,473.7,266.9,364,266.9,217.3s289.7-97.4,328.7-58.3C634.6,198.1,541.3,466.2,485.1,469.9z
		"/>
	<rect x="648.7" y="191.6" fill="none" width="20" height="31"/>
</g>
<g id="Layer_1">
	<g>
		<path fill="#DDC8BA" d="M502.3,384.7c-4.9,1.3-9.9,2.5-14.8,3.5c-2.4-29-11.7-55-25.4-76.2c4.1-2.7,8.2-5.5,12.2-8.5
			C489.1,326.2,499.3,353.9,502.3,384.7z"/>
	</g>
	<g>
		<path fill="#EAD5C5" d="M379.8,307.1c-51.7,9.3-90.1-22.4-96.3-52.9c4.6,0.2,8.9-0.1,12.9-1c7.8,26.5,46.8,52.3,94.3,35.5
			C387.8,295,384.1,301.2,379.8,307.1z"/>
	</g>
	<path fill="#FCFCFC" d="M465,319.6l-16.1-22.1c0,0,5.3-10,8.7-10c12-0.1,21.2,22.1,21.2,22.1L465,319.6z"/>
	<path fill="#FCFCFC" d="M405.2,304.2l-27.2,3.1l-1.9-16.9c0,0,23.7-6,27.2-3.1S405.2,304.2,405.2,304.2z"/>
	<g>
		<path fill="#EAD5C5" d="M424.5,453.5c-4.2-0.1-8.4-0.3-12.6-0.4c-3-18.7-4.9-37.4-4.9-55.9c7.5-0.2,15-0.5,22.4-0.7
			C429.4,415.5,427.5,434.5,424.5,453.5z"/>
	</g>
	<g>
		<path fill="#EAD5C5" d="M454.7,452.5c-4.2-0.1-8.4-0.3-12.6-0.4c-3-18.7-4.9-37.4-4.9-55.9c7.5-0.2,15-0.5,22.4-0.7
			C459.6,414.5,457.7,433.5,454.7,452.5z"/>
	</g>
	<rect x="403.4" y="378.3" fill="#232323" width="26.8" height="25.8"/>
	<rect x="434" y="378.3" fill="#232323" width="26.8" height="25.8"/>
	<rect x="405.4" y="286.1" fill="#DDC8BA" width="49.6" height="34.8"/>
	<polygon fill="#DDC8BA" points="439.1,312 416.9,312 416.9,305.6 416.9,266.2 439.1,266.2 439.1,303.6 	"/>
	<path fill="#FCFCFC" d="M463,379v-81.5c0-5.1-3.4-9.8-8-11.5c-0.9,5.7-6,9.9-12,9.9h-28c-5.7,0-10.6-3.8-11.7-9.2
		c-3.7,2.1-6.3,6.2-6.3,10.7V379H463z"/>
	<path fill="#191919" d="M502.7,185.1c0,49.6-37.3,106.3-37.3,106.3s-36.2-62.1-36.2-111.7s15.6-67.9,36.2-67.9
		C486,111.8,502.7,135.5,502.7,185.1z"/>
	<path fill="#191919" d="M521.8,188.6c0,49.6-37.3,106.3-37.3,106.3s-36.2-62.1-36.2-111.7s15.6-67.9,36.2-67.9
		C505.1,115.2,521.8,139,521.8,188.6z"/>
	<path fill="#191919" d="M402.7,191.9c-9.1,48.7-56.2,97.6-56.2,97.6s-24.2-67.7-15.1-116.4c9.1-48.7,27.8-63.9,48-60.1
		C399.8,116.8,411.8,143.2,402.7,191.9z"/>
	<path fill="#191919" d="M405.5,197.2c0,49.6-37.3,106.3-37.3,106.3S332,241.4,332,191.8s15.6-67.9,36.2-67.9
		S405.5,147.7,405.5,197.2z"/>
	<ellipse fill="#EAD5C5" cx="421.2" cy="181.3" rx="78.5" ry="82.6"/>
	<g>
		<path fill="#EAD5C5" d="M453.6,180.1c36,0,43.4,24.4,31.7,48.8c-10.8,24.4-40.6,48.8-60.2,48.8c-19.5,0-49.5-24.2-60.6-48.6
			c-11.9-24.3-5-48.7,30.7-49C415.2,180.1,434.7,180.1,453.6,180.1z"/>
	</g>
	<ellipse transform="matrix(0.92 -0.392 0.392 0.92 -59.5688 155.6045)" fill="#EAD5C5" cx="351.3" cy="223.7" rx="8.2" ry="14.7"/>
	
		<ellipse transform="matrix(-0.927 -0.375 0.375 -0.927 860.535 614.8549)" fill="#EAD5C5" cx="490.1" cy="223.7" rx="8.2" ry="14.7"/>
	<path fill="#191919" d="M414.9,192c-38.7,22.9-102.7,15.8-102.7,15.8s29.3-61,68-84s61.3-17.5,72.2,0.9S453.6,169.1,414.9,192z"/>
	<ellipse fill="#191919" cx="429.1" cy="129.4" rx="74.4" ry="32.4"/>
	<g>
		<ellipse fill="#42210B" cx="401.4" cy="220" rx="5.4" ry="7.4"/>
		<ellipse fill="#42210B" cx="448.2" cy="220" rx="5.4" ry="7.4"/>
	</g>
	<g>
		<path fill="#191919" d="M415,201.9c-0.4,1.9-12.1-0.9-21.1,1.8c-9.1,2.3-13.8,6.2-15,6.3c-0.8,0.5,1.9-5.8,12.5-10.6
			C402.3,194.5,415.8,199.6,415,201.9z"/>
	</g>
	<g>
		<path fill="#191919" d="M438.6,199.8c-0.6,2.3,13.2,0.4,22.8,4.3c9.6,3.6,13.6,7.1,15.2,7.3c1,0.6-0.6-4.6-10.8-10.9
			C455.5,193.7,438.9,196.9,438.6,199.8z"/>
	</g>
	<rect x="349.8" y="206.2" transform="matrix(-0.9888 -0.1493 0.1493 -0.9888 697.6786 469.1317)" width="33.2" height="4.4"/>
	<g>
		<path fill="#CCB6A8" d="M429.1,244.7c-7.4,0-11.3-5-8.9-11.1c0.9-3,2.5-5.7,3.5-7.7c-1.4,2-3.7,5.3-5.1,9
			c-2.8,6.1,1.1,11.1,8.8,11.1c3.7,0,6.9-1.3,8.2-3.4C434.2,243.9,431.8,244.7,429.1,244.7z"/>
	</g>
	<path fill="#FFFFFF" d="M427.9,259c-6.5,0-12.2-2.3-16-5.9c2.1,6.5,8.3,11.2,15.7,11.2c7,0,13-4.3,15.4-10.4
		C439.2,257.1,433.8,259,427.9,259z"/>
	<path d="M382,208v26h39v-26H382z M418,229h-32v-17h32V229z"/>
	<path d="M431,208v26h39v-26H431z M467,229h-32v-17h32V229z"/>
	<rect x="419.5" y="208" width="12.7" height="5.7"/>
	<rect x="468.9" y="206.2" transform="matrix(0.9775 -0.2108 0.2108 0.9775 -33.4066 106.1554)" width="24.6" height="7.1"/>
	<path fill="#191919" d="M380.7,168.7c-4.4,21.3-31.9,43.8-31.9,43.8s-16.7-29.6-12.3-50.9s16.2-28.8,28.3-26.3
		S385.1,147.4,380.7,168.7z"/>
	<path fill="#191919" d="M509.3,150.2c7.4,31.2-16,74.5-16,74.5s-40.2-31.8-47.6-63s3.2-46,20.8-50.1
		C484.1,107.4,501.9,118.9,509.3,150.2z"/>
	<path fill="#0C00E7" d="M403.4,290.5L403.4,290.5c0.2,0,0.3,0.1,0.3,0.3l0,0c0,0.2-0.1,0.3-0.3,0.3l0,0c-0.2,0-0.3-0.1-0.3-0.3l0,0
		C403.1,290.6,403.3,290.5,403.4,290.5z"/>
	<path fill="#232323" d="M454.5,286.1c-1.7,4-6,6.9-10.7,6.9H416c-4.8,0-9-3-10.9-7.1L403,287v0.2c0,7,5.7,12.8,12.8,12.8h26.5
		c7.1,0,12.8-5.7,12.8-12.8v-1C455,285.9,454.6,285.8,454.5,286.1z"/>
	<g>
		<path fill="#232323" d="M463.4,329.7c-22.4,2.1-44.9,2.1-67.3,0c0.1-1.3,0.3-2.7,0.4-4c22.1,2.1,44.4,2.1,66.6,0
			C463.1,327,463.2,328.4,463.4,329.7z"/>
	</g>
	<g>
		<path fill="#232323" d="M464.2,362.6c-22.6,2.1-45.4,2.1-68,0c0.1-1.3,0.3-2.7,0.4-4c22.4,2.1,44.9,2.1,67.3,0
			C463.9,359.9,464.1,361.2,464.2,362.6z"/>
	</g>
	<g>
		<path fill="#232323" d="M397,308.7c-0.1,1.3-0.3,2.7-0.4,4c22.2,2.1,44.6,2.1,66.8,0c-0.1-1.4-0.3-2.7-0.4-4.1
			C441,310.7,418.9,310.8,397,308.7z"/>
	</g>
	<g>
		<path fill="#232323" d="M463,342.1c-22.1,2.1-44.4,2.1-66.5,0c-0.1,1.3-0.3,2.7-0.4,4c22.4,2.1,44.9,2.1,67.2,0
			C463.2,344.9,463.1,343.5,463,342.1z"/>
	</g>
	<circle fill="#EAD5C5" cx="447.5" cy="461.9" r="5.7"/>
	<g>
		<path fill="#EAD5C5" d="M448.2,456.9c6.1,2.3,12.2,4.6,18.3,6.1c-0.6,1.8-1.1,3.9-1.7,6.1c-6.1,0.5-12.2-0.3-18.3-1.8
			C447.1,463.7,447.6,460.2,448.2,456.9z"/>
	</g>
	<g>
		<path fill="#EAD5C5" d="M421.4,456.6c-6.1,2.3-12.2,4.5-18.2,5.9c0.6,1.9,1.1,4,1.7,6.2c6.1,0.3,12.2-0.5,18.2-1.9
			C422.6,463.3,422,459.9,421.4,456.6z"/>
	</g>
	<rect x="442" y="451.3" fill="#EAD5C5" width="12.8" height="9.7"/>
	<circle fill="#EAD5C5" cx="420.6" cy="461.9" r="5.7"/>
	<rect x="411.8" y="451.3" fill="#EAD5C5" width="12.8" height="9.7"/>
	
		<ellipse transform="matrix(0.9985 5.456460e-02 -5.456460e-02 0.9985 14.1732 -15.4404)" fill="#EAD5C5" cx="289.9" cy="251.8" rx="7" ry="9.7"/>
	
		<ellipse transform="matrix(0.9971 -7.568491e-02 7.568491e-02 0.9971 -27.9952 38.6102)" fill="#DDC8BA" cx="495.4" cy="388.7" rx="8" ry="10.1"/>
	<g>
		<path fill="#EAD5C5" d="M461,466c0-2,2.5-3.5,5.7-3.1c3.1,0.5,5.7,2,5.7,3.1c0,1.1-2.5,2.6-5.7,3.1C463.5,469.5,461,468,461,466z"
			/>
	</g>
	<g>
		<path fill="#EAD5C5" d="M410,464.6c-0.2-2.2-2.9-3.3-6-2.5c-3.1,0.8-5.4,2.5-5.2,3.9c0.2,1.4,2.9,2.8,6,2.8
			C407.9,468.8,410.2,466.8,410,464.6z"/>
	</g>
	<g>
		<path fill="#81E1F7" d="M308.4,298.1c0,5.6-7.7,16-16.8,16.1c-9.1,0.2-16.8-10.8-16.8-16.1c0-5.4-0.9-16.1,16.8-16.1
			C309.3,282,308.4,292.5,308.4,298.1z"/>
		<g>
			<path fill="#81E1F7" d="M316.5,326.1c-4-13.8-15.3-26-25.3-25.9c-10,0.3-21.3,12.3-25.3,25.8c-4,13.5,7.3,26.1,25.3,26.4
				C309.2,352.5,320.5,339.9,316.5,326.1z"/>
		</g>
		<rect x="284.9" y="334.7" fill="#1A1A1A" width="13.4" height="5.9"/>
		<circle fill="#534741" cx="291.7" cy="295.7" r="6.8"/>
		<rect x="286.7" y="231.6" fill="#534741" width="8.9" height="51.9"/>
		<path fill="#81E1F7" d="M297.4,232.6h-12.6v-17.8c0,0,0,0.1,2.3,0c2.3,0,3.6-2.5,4.4-2.5c1.2,0,1.4,2.5,4.5,2.5c1.4,0,1.4,0,1.4,0
			V232.6z"/>
		<rect x="300.4" y="216.5" fill="#FFFFFF" width="1.2" height="4.1"/>
		<rect x="280.6" y="216.5" fill="#FFFFFF" width="1.2" height="4.1"/>
		<rect x="280.6" y="225.3" fill="#FFFFFF" width="1.2" height="4.1"/>
		<rect x="300.4" y="225.3" fill="#FFFFFF" width="1.2" height="4.1"/>
		<circle fill="#CCCCCC" cx="288.1" cy="227.7" r="1.2"/>
		<circle fill="#CCCCCC" cx="294.3" cy="227.7" r="1.2"/>
		<circle fill="#CCCCCC" cx="294.3" cy="219" r="1.2"/>
		<circle fill="#CCCCCC" cx="288.1" cy="219" r="1.2"/>
		<line fill="none" stroke="#FFFFFF" stroke-miterlimit="10" x1="289.3" y1="337" x2="288.2" y2="228.3"/>
		<line fill="none" stroke="#FFFFFF" stroke-miterlimit="10" x1="294.3" y1="227.7" x2="295.7" y2="336.3"/>
		<polyline fill="none" stroke="#FFFFFF" stroke-miterlimit="10" points="294.3,219 292.5,227.9 293.6,337 		"/>
		<polyline fill="none" stroke="#FFFFFF" stroke-miterlimit="10" points="288.2,219 290,227.7 291.7,337 		"/>
		<rect x="281.8" y="218.1" fill="#CCCCCC" width="3.1" height="1.1"/>
		<rect x="281.8" y="226.8" fill="#CCCCCC" width="3.1" height="1.2"/>
		<rect x="297.4" y="218.1" fill="#CCCCCC" width="3.1" height="1.1"/>
		<rect x="297.4" y="226.8" fill="#CCCCCC" width="3.1" height="1.1"/>
	</g>
	<path fill="#EAD5C5" d="M295.7,253.9c-2.1,0.5-4.2-1.6-2.9-2.1c1.3-0.5,3.1-1,3.6,0C296.8,252.9,295.7,253.9,295.7,253.9z"/>
</g>
</svg>
